<svg xmlns="http://www.w3.org/2000/svg" xmlns:xlink="http://www.w3.org/1999/xlink" width="533" height="487"
     viewBox="0 0 533 487">
    <defs>
        <clipPath id="clip-path">
            <rect id="Rectangle_15" width="533" height="487" transform="translate(731.873 163)" fill="#fff"
                  stroke="#707070" stroke-width="1"/>
        </clipPath>
        <linearGradient id="linear-gradient" x1="0.5" y1="1" x2="0.5" gradientUnits="objectBoundingBox">
            <stop offset="0" stop-color="gray" stop-opacity="0.251"/>
            <stop offset="0.54" stop-color="gray" stop-opacity="0.122"/>
            <stop offset="1" stop-color="gray" stop-opacity="0.102"/>
        </linearGradient>
    </defs>
    <g id="Mask_Group_1" transform="translate(-731.873 -163)" clip-path="url(#clip-path)">
        <g id="undraw_successful_purchase_uyin" transform="translate(731.088 202.548)">
            <rect id="Rectangle_16" width="39.761" height="16.57" rx="2.508" transform="translate(164.012 42.572)"
                  fill="#f76e00" opacity="0.1"/>
            <rect id="Rectangle_17" width="39.761" height="16.57" rx="2.508" transform="translate(282.3 27.66)"
                  fill="#f76e00" opacity="0.1"/>
            <rect id="Rectangle_18" width="39.761" height="16.57" rx="2.508" transform="translate(260.432 196.116)"
                  fill="#f76e00" opacity="0.1"/>
            <rect id="Rectangle_19" width="39.761" height="16.57" rx="2.508" transform="translate(278.324 214.343)"
                  fill="#f76e00" opacity="0.1"/>
            <rect id="Rectangle_20" width="39.761" height="16.57" rx="2.508" transform="translate(384.683 206.058)"
                  fill="#f76e00" opacity="0.1"/>
            <rect id="Rectangle_21" width="39.761" height="16.57" rx="2.508" transform="translate(61.132 219.314)"
                  fill="#f76e00" opacity="0.1"/>
            <rect id="Rectangle_22" width="39.761" height="16.57" rx="2.508" transform="translate(248.006 232.569)"
                  fill="#f76e00" opacity="0.1"/>
            <path id="Path_1"
                  d="M383.463,139.694l-18.22-58.778-6.551,1.1-5.865.834c.149-2.209.408-10.141-3.231-14.3a10.98,10.98,0,0,0-3.072-4.866c-8.717-8.881-10.532,9.284-10.532,9.284s-1.988,3.833-4.727,9.191l-1.436-.3-.408,3.955c-6.064,11.913-14.12,28.036-14.12,29.549a21.85,21.85,0,0,1-1.088,5.65s-6.173,11.3-8.355,16.956a27.406,27.406,0,0,1-5.467,8.881s-.527.447-1.392,1.1a15.205,15.205,0,0,1,.5-3.154c.8-2.889,2.644-5.363,3.136-8.334a10.793,10.793,0,0,0,.129-2.16c.114-3.485-1.412-6.915-2.048-10.4-.741-4.037-.343-8.484-2.281-11.991a11.16,11.16,0,0,0-6.884-5.114c-2.525-.7-5.01-.453-7.554-.751-2.336-.276-4.568-1.425-6.9-1.85a8.041,8.041,0,0,0-3.787,0c-3.951,1.21-5.189,6.744-8.24,9.787-1.1,1.1-2.445,1.867-3.439,3.076a9.949,9.949,0,0,0-1.874,6.628,15.662,15.662,0,0,0,.129,2.414c.378,2.889,1.382,5.623,1.988,8.456a32.365,32.365,0,0,1,.741,6.4c0,.486,0,.972-.04,1.453a5.536,5.536,0,0,1-.671,2.762,7.084,7.084,0,0,1-2.271,1.8,19.7,19.7,0,0,1-5.726-9.025s-.134.188-.363.552v-.552s-4.97-8.108-5.726-14.73l1.73.2,3.976-62.163L243.366,59.6c-.283-3.209-1.054-7.865-3.1-11.262,1.7-3.734,2.565-8.787-4.91-9.29-8.747-.591-8.211,6.981-7.281,11.124a30.885,30.885,0,0,0-.5,6.876L218.635,55.6l-.05.806h-2.127l-6.511,63.417,5.547-.309,20.328,2.353c1.625,16.42,4.18,36.713,7.212,41.5a4.031,4.031,0,0,0,.333.458v29.057s-.363,37.558-6.541,43.594a29.372,29.372,0,0,1,11.819-2.06q-.1.373-.209.8a77.548,77.548,0,0,0-1.884,11.311q-.129,1.265-.234,2.64a158.207,158.207,0,0,0,.313,25.257c2.545,29.869,6.541,51.266,6.541,51.266l1.113,17.365S253.2,372.512,256.1,382.2a13.1,13.1,0,0,0,3.718,2.679c.025.276.055.552.079.845s.065.746.1,1.132c-1.3.657-3.732,3.264-4.259,13.5,0,0,.726,7.672-1.088,11.3s-.726,14.128,4.722,15.338a26.248,26.248,0,0,0,10.532,0s2.545,0,.726-10.091l-.318-2.585c-.04-5,.149-10.35,1.044-11.947,1.814-3.231-.726-6.457-.726-6.457s-.179.11-.472.26a52.909,52.909,0,0,1-.86-10.776,8.567,8.567,0,0,1,.075-.856,15.362,15.362,0,0,0,3.076-2.358V343.852s-.363-58.932,3.633-60.147c0,0,1.814,21.391,1.088,31.891a111.115,111.115,0,0,0,1.088,21.8l.726,42.788a18.634,18.634,0,0,0,1.819.806l-.075.779c-.442,4.755-1.153,11.936-1.8,16.332a3.168,3.168,0,0,0-1.764,2.265c-1.088,4.037-.363,14.128-2.545,16.956-1.287,1.657-2.828,5.032-2.073,7.418-.472,2.093-.263,5.363,5.343,5.9,8.355.806,11.988-4.037,11.988-4.037s1.088-2.016,0-5.65.363-10.091.363-10.091.78-5.479-.5-6.2c-.109-.652-.209-1.066-.209-1.066a5.18,5.18,0,0,0-1.148-3.358c-.03-4.225.124-12.04,1.461-17.188.079-.293.159-.552.243-.856a9.183,9.183,0,0,0,3.072-1.2s-.363-9.284,2.182-15.741,1.088-32.294,1.088-32.294-1.088-6.788.447-12.289a131.969,131.969,0,0,0,3.946-18.668l2.142-16.674s5.641-20.3-1.789-41.131q-.455-1.292-.994-2.585c-.616-1.5-1.3-3-2.068-4.49-.119-.232-.249-.469-.373-.7.78-.215,1.223-.342,1.223-.342s-9.806-25.407-3.633-38.347c0,0,3.479-3.866,3.976-8.114.616-5.617,1.287-11.229,2.391-16.752l.194-.972s.03-.188.079-.525c.139-.1.273-.2.408-.315,10.467-8.495,19.493-43.964,19.493-43.964l2.907-6.076,1.382-3.248-2.833,27.467,22.157,6.075,14.165-1.21-.04-3.386,10.8-.933ZM243.008,59.608l-3.936-.641c-.691-3.949-1.158-6.539-1.158-6.539A24.344,24.344,0,0,0,240.1,48.8c1.9,3.237,2.634,7.655,2.912,10.787Zm-14.7-8.478c.273,1.038.522,1.707.522,1.707l.5,4.557-1.342-.215a33.21,33.21,0,0,1,.328-6.07ZM352.459,82.949l-5.328.762A24.492,24.492,0,0,0,348.269,73.6a5.391,5.391,0,0,0,1.461-4.225c3.166,4.2,2.868,11.626,2.729,13.559Zm-8.847-6.3a12.91,12.91,0,0,0,4.339-2.712,24.737,24.737,0,0,1-1.223,9.831l-4.97.707-1.372-.293Z"
                  transform="translate(-26.159 -39.012)" fill="url(#linear-gradient)"/>
            <path id="Path_2" d="M348.49,96.382,335.523,102.4,320.459,44.023l3.534-4.662,6.476-1.116Z"
                  transform="translate(7.864 5.343)" fill="#f76e00"/>
            <path id="Path_3" d="M348.49,96.382,335.523,102.4,320.459,44.023l3.534-4.662,6.476-1.116Z"
                  transform="translate(7.864 5.343)" fill="#fff" opacity="0.2"/>
            <path id="Path_4" d="M324.447,39.225l-22.5,3.209,11.536,61.771,22.5-1.944Z"
                  transform="translate(7.41 5.479)" fill="#f76e00"/>
            <path id="Path_5" d="M324.447,39.225l-22.5,3.209,11.536,61.771,22.5-1.944Z"
                  transform="translate(7.41 5.479)" fill="#fff" opacity="0.07"/>
            <path id="Path_6"
                  d="M348.93,81.569l-.358-.05c0-.149,1.491-14.73-6.744-16.57l.07-.392C350.485,66.474,348.959,81.42,348.93,81.569Z"
                  transform="translate(-22.923 -35.473)" fill="#535461"/>
            <rect id="Rectangle_23" width="24.791" height="40.325" transform="translate(242.758 88.657)"
                  fill="#774e55"/>
            <rect id="Rectangle_24" width="24.791" height="40.325" transform="translate(242.758 88.657)" opacity="0.2"/>
            <path id="Path_7" d="M325.117,105.967l-14.011,1.2,2.157-60.683,4.667-3.192,6.466,1.2Z"
                  transform="translate(7.635 6.042)" fill="#f76e00"/>
            <path id="Path_8" d="M325.117,105.967l-14.011,1.2,2.157-60.683,4.667-3.192,6.466,1.2Z"
                  transform="translate(7.635 6.042)" opacity="0.2"/>
            <path id="Path_9" d="M318.455,43.874,296.184,39.08l-6.466,62.682,21.913,5.987Z"
                  transform="translate(7.11 5.459)" fill="#f76e00"/>
            <path id="Path_10" d="M190.014,16.993h-3.236L180.313,79.67l14.368-.8Z" transform="translate(4.425 2.398)"
                  fill="#f76e00"/>
            <path id="Path_11" d="M190.014,16.993h-3.236L180.313,79.67l14.368-.8Z" transform="translate(4.425 2.398)"
                  opacity="0.2"/>
            <path id="Path_12" d="M188.824,16.29l-3.951,63.08,34.487,3.993,3.951-61.484Z"
                  transform="translate(4.537 2.301)" fill="#f76e00"/>
            <path id="Path_13"
                  d="M260.132,342.875s-4.309-.4-5.03,13.576c0,0,.721,7.583-1.078,11.179S253.3,381.6,258.7,382.8a25.957,25.957,0,0,0,10.437,0s2.515,0,.721-9.98l-3.593-29.146Z"
                  transform="translate(-25.097 3.09)" fill="#5c3d53"/>
            <path id="Path_14"
                  d="M260.132,342.875s-4.309-.4-5.03,13.576c0,0,.721,7.583-1.078,11.179S253.3,381.6,258.7,382.8a25.957,25.957,0,0,0,10.437,0s2.515,0,.721-9.98l-3.593-29.146Z"
                  transform="translate(-25.097 3.09)" opacity="0.05"/>
            <path id="Path_15"
                  d="M282.478,143.12a29.53,29.53,0,0,0,.76,9.389L273.9,155.3s-15.447,2.4-9.339-4.419c2.112-2.347,3.151-6.374,3.6-10.627a65.4,65.4,0,0,0,.263-8.749q-.124-4.1-.636-8.174s22.634-8.782,17.6,5.589a55.46,55.46,0,0,0-2.162,8.009A46.677,46.677,0,0,0,282.478,143.12Z"
                  transform="translate(-24.854 -27.697)" fill="#f8bdc5"/>
            <path id="Path_16"
                  d="M285.283,128.93a55.451,55.451,0,0,0-2.162,8.009,14.583,14.583,0,0,1-14.806-5.424q-.124-4.1-.636-8.174S290.313,114.559,285.283,128.93Z"
                  transform="translate(-24.743 -27.696)" opacity="0.1"/>
            <ellipse id="Ellipse_15" cx="15.447" cy="17.166" rx="15.447" ry="17.166"
                     transform="translate(239.706 74.485)" fill="#f8bdc5"/>
            <path id="Path_17"
                  d="M253.566,138.783v5.192l-7.9,22.755-2.157-2.4a3.98,3.98,0,0,1-.328-.453c-5.219-8.241-9.016-63.025-9.016-63.025l-5.025-46.323s-5.388-14.36,6.461-13.576,2.515,13.173,2.515,13.173,7.9,43.915,6.824,45.511,0,6.39,0,6.39,3.236,9.185,2.873,15.967S253.566,138.783,253.566,138.783Z"
                  transform="translate(-25.718 -38.747)" fill="#f8bdc5"/>
            <path id="Path_18"
                  d="M340.987,75.427,322.3,119.342l-2.873,5.976S310.486,160.4,300.153,168.8a9.258,9.258,0,0,1-1.918,1.232l-2.157-19.165,1.988-5.567.149-.425a27.118,27.118,0,0,0,5.388-8.782c2.157-5.589,8.265-16.768,8.265-16.768a21.6,21.6,0,0,0,1.079-5.589c0-2.4,20.477-41.921,20.477-41.921s1.794-17.967,10.437-9.185S340.987,75.427,340.987,75.427Z"
                  transform="translate(-24.046 -36.075)" fill="#f8bdc5"/>
            <path id="Path_19"
                  d="M269.7,355.528s-12.216,5.589-10.78.4c.875-3.148.552-9.1.164-13.256-.248-2.712-.527-4.689-.527-4.689l10.437,1.2a10.292,10.292,0,0,0-.6,3.176C268.048,347.652,269.7,355.528,269.7,355.528Z"
                  transform="translate(-24.966 2.412)" fill="#f8bdc5"/>
            <path id="Path_20"
                  d="M288.247,340.484c-1.884,7.268-1.392,19.928-1.392,19.928s-11.138,1.6-10.059-1.6c.75-2.209,1.849-13.156,2.445-19.591.263-2.811.427-4.761.427-4.761l10.059,2.4A11.8,11.8,0,0,0,288.247,340.484Z"
                  transform="translate(-24.521 1.925)" fill="#f8bdc5"/>
            <path id="Path_21"
                  d="M258.56,337.966l10.437,1.2a10.292,10.292,0,0,0-.6,3.176,9.7,9.7,0,0,1-9.294.315C258.838,339.938,258.56,337.966,258.56,337.966Z"
                  transform="translate(-24.966 2.41)" opacity="0.1"/>
            <path id="Path_22"
                  d="M289.673,336.855a11.792,11.792,0,0,0-1.491,3.629,17.55,17.55,0,0,1-9-1.259c.263-2.811.427-4.761.427-4.761Z"
                  transform="translate(-24.46 1.925)" opacity="0.1"/>
            <path id="Path_23"
                  d="M301.992,261.318l-2.117,16.492a130.51,130.51,0,0,1-3.906,18.464c-1.521,5.44-.442,12.151-.442,12.151s1.436,25.55-1.078,31.94-2.157,15.57-2.157,15.57c-5.75,3.6-14.011-.8-14.011-.8l-.721-42.319a109.885,109.885,0,0,1-1.078-21.54c.716-10.361-1.079-31.537-1.079-31.537-3.976,1.2-3.593,59.485-3.593,59.485v37.928c-8.623,8.384-16.168,0-16.168,0-2.873-9.583-1.794-38.728-1.794-38.728l-1.078-17.166s-3.976-21.159-6.461-50.7A156.45,156.45,0,0,1,246,225.572q.1-1.359.229-2.612a76.7,76.7,0,0,1,1.859-11.184,27.134,27.134,0,0,1,1.093-3.54l38.6,1.994,2.276.116,5.467.282c.6,1,1.158,2.016,1.68,3.032.755,1.475,1.436,2.96,2.043,4.419.348.851.676,1.707.994,2.557C307.583,241.23,301.992,261.318,301.992,261.318Z"
                  transform="translate(-25.283 -15.565)" fill="#5e52ad"/>
            <path id="Path_24"
                  d="M259.589,211.733s-1.69,18.779-13.6,13.344q.1-1.359.229-2.612c2.8.845,10.561,2.01,10.855-10.737Z"
                  transform="translate(-25.275 -15.081)" opacity="0.1"/>
            <path id="Path_25"
                  d="M299.213,220.4c-8.25,3.275-11.362-5.446-12.425-10.422l2.276.116c1.238,7.826,6.178,8.285,9.185,7.732Q298.756,219.134,299.213,220.4Z"
                  transform="translate(-24.274 -15.324)" opacity="0.1"/>
            <path id="Path_26"
                  d="M263.284,352.185c-1.834-.32-4.637-1.442-3.757-5.357,0,0-3.395-1.3-3.037,14.266,0,0-.358,7.583-1.079,9.185s0,11.179,7.545,10.378c0,0,5.388,1.994,6.824-1.2,0,0-1.078-18.365.721-21.54s-.721-6.39-.721-6.39-2.545,1.569-4.374,1.1A17.522,17.522,0,0,0,263.284,352.185Z"
                  transform="translate(-25.049 3.634)" fill="#5c3d53"/>
            <path id="Path_27"
                  d="M271.9,376.645s-3.593,6.788,4.672,7.583,11.854-3.993,11.854-3.993,1.078-1.994,0-5.589.358-9.98.358-9.98,1.078-7.583-1.436-5.987S271.9,376.645,271.9,376.645Z"
                  transform="translate(-24.658 5.249)" fill="#5c3d53"/>
            <path id="Path_28"
                  d="M271.9,376.645s-3.593,6.788,4.672,7.583,11.854-3.993,11.854-3.993,1.078-1.994,0-5.589.358-9.98.358-9.98,1.078-7.583-1.436-5.987S271.9,376.645,271.9,376.645Z"
                  transform="translate(-24.658 5.249)" opacity="0.05"/>
            <path id="Path_29"
                  d="M281.248,353.1s-4.309-1.994-5.388,1.994-.358,13.974-2.515,16.768-5.03,10.378,3.593,9.98,10.437-3.6,10.437-3.6-.358-9.98.721-12.775,0-7.18,0-7.18S288.43,352.678,281.248,353.1Z"
                  transform="translate(-24.659 4.438)" fill="#5c3d53"/>
            <ellipse id="Ellipse_16" cx="0.721" cy="0.801" rx="0.721" ry="0.801" transform="translate(201.979 23.379)"
                     opacity="0.2"/>
            <ellipse id="Ellipse_17" cx="0.721" cy="0.801" rx="0.721" ry="0.801" transform="translate(217.068 25.373)"
                     opacity="0.2"/>
            <path id="Path_30"
                  d="M243.685,64.325h-.358c0-.171.253-17.011-8.449-18.563a4.276,4.276,0,0,0-4.165,1.281C227.12,51,228.606,62.188,228.621,62.3l-.353.061c-.065-.469-1.526-11.5,2.2-15.6a4.586,4.586,0,0,1,4.473-1.4C243.944,46.966,243.69,64.154,243.685,64.325Z"
                  transform="translate(-25.718 -38.146)" fill="#535461"/>
            <path id="Path_31"
                  d="M342.575,83.982l-.323-.171c.055-.133,5.591-13.46-1.725-18.1l.179-.348C348.305,70.185,342.635,83.844,342.575,83.982Z"
                  transform="translate(-22.955 -35.362)" fill="#535461"/>
            <path id="Path_32"
                  d="M283.238,150.107,273.9,152.9s-15.447,2.4-9.339-4.419c2.112-2.347,3.151-6.374,3.6-10.627,2.44,4.253,5.378,3.043,5.378,3.043l8.906-.193h.035A29.377,29.377,0,0,0,283.238,150.107Z"
                  transform="translate(-24.854 -25.317)" opacity="0.1"/>
            <path id="Path_33"
                  d="M300.158,158.508a9.262,9.262,0,0,1-1.918,1.232l-2.157-19.165,1.988-5.567.5-.425C303.055,136,300.739,154.36,300.158,158.508Z"
                  transform="translate(-24.046 -25.77)" opacity="0.1"/>
            <path id="Path_34"
                  d="M253.2,126.874v5.192l-7.9,22.755-2.157-2.4a3.981,3.981,0,0,1-.328-.453C243.748,140.107,253.2,126.874,253.2,126.874Z"
                  transform="translate(-25.353 -26.838)" opacity="0.1"/>
            <path id="Path_35"
                  d="M297.142,213.649c-5.025,1.4-31.257,8.246-39.04,1.762a16.561,16.561,0,0,0-10.074-3.645,27.139,27.139,0,0,1,1.093-3.54l38.6,1.994,2.276.116,5.467.282Q296.362,212.125,297.142,213.649Z"
                  transform="translate(-25.225 -15.567)" opacity="0.1"/>
            <path id="Path_36" d="M229.987,43.945s5.388,9.98,8.981,0" transform="translate(-25.668 -38.329)"
                  fill="#f8bdc5"/>
            <path id="Path_37" d="M338.166,62s-2.157,11.98,6.461,6.39" transform="translate(-23.019 -35.827)"
                  fill="#f8bdc5"/>
            <g id="Group_9" transform="translate(223.663 192.675)" opacity="0.1">
                <path id="Path_38"
                      d="M273.323,257.41c-.174-2.43-.3-3.949-.3-3.949-3.976,1.2-3.593,59.485-3.593,59.485v37.928a11.961,11.961,0,0,1-7.132,3.684c2.594.254,5.686-.552,8.946-3.684V312.946S270.963,270.71,273.323,257.41Z"
                      transform="translate(-248.538 -201.974)"/>
                <path id="Path_39"
                      d="M299.965,220.639c-.3-.851-.626-1.707-.994-2.557-.606-1.48-1.287-2.966-2.043-4.419-.5-1.016-1.083-2.027-1.68-3.032l-5.467-.282-2.276-.116-38.6-1.994-.035.088,36.843,1.905,2.276.116,5.467.282c.6,1,1.158,2.016,1.68,3.032.755,1.475,1.436,2.96,2.043,4.419.348.851.676,1.707.994,2.557,7.346,20.6,1.769,40.678,1.769,40.678l-2.117,16.492a130.514,130.514,0,0,1-3.906,18.464c-1.521,5.44-.442,12.151-.442,12.151s1.436,25.55-1.078,31.94-2.157,15.57-2.157,15.57a9.65,9.65,0,0,1-4.5,1.381,10.466,10.466,0,0,0,6.3-1.381s-.358-9.185,2.157-15.57,1.079-31.94,1.079-31.94-1.079-6.716.442-12.151a130.523,130.523,0,0,0,3.906-18.464l2.117-16.492S307.31,241.23,299.965,220.639Z"
                      transform="translate(-248.867 -208.24)"/>
            </g>
            <path id="Path_40"
                  d="M283.093,143.042c4.97,2.6,16.6-7.39,16.6-7.39,5.03,1.6,1.436,24.755,1.436,24.755l-.194.961c-1.093,5.462-1.754,11.013-2.366,16.569-.462,4.192-3.906,8.025-3.906,8.025-6.108,12.775,3.593,37.928,3.593,37.928s-31.257,9.185-39.875,1.994-21.555-1.6-21.555-1.6c6.108-5.987,6.461-43.119,6.461-43.119v-28.72c.721-11.98,10.437-25.55,10.437-25.55,3.976,12.377,15.025,13.195,15.025,13.195,2.45,4.419,5.467,3.176,5.467,3.176Z"
                  transform="translate(-25.5 -26.835)" fill="#eb6475"/>
            <path id="Path_41"
                  d="M276.243,98.29a7.951,7.951,0,0,0-3.742,0c-3.906,1.2-5.134,6.672-8.151,9.677-1.083,1.1-2.42,1.845-3.4,3.043-1.75,2.132-2.1,5.291-1.73,8.147s1.367,5.562,1.988,8.362a32.051,32.051,0,0,1,.691,8.572,5.475,5.475,0,0,1-.666,2.712c-.721,1.1-2.048,1.453-2.982,2.336-2.853,2.728-.5,8.39-2.589,11.875-.9,1.508-2.584,2.5-2.927,4.269a6.368,6.368,0,0,0,.78,3.673c1.332,3.038,2.714,6.158,4.97,8.423s5.045,3.4,7.818,4.557c.84.348,1.894.652,2.535-.039.79-.862.194-2.32-.353-3.386a7.848,7.848,0,0,1-1.034-5.523c.507-1.867,2.132-3.1,3.226-4.662,2.818-4.032,1.894-9.82.5-14.681-.591-2.049-1.257-4.231-.755-6.313.214-.895.636-1.707.9-2.585,1.193-3.91-.81-8.2-.224-12.278a18.941,18.941,0,0,1,1.491-4.568l3.156-7.539a7.6,7.6,0,0,1,1.4-2.441,4.641,4.641,0,0,1,3.479-1.2,9.067,9.067,0,0,1,6.774,3.43c3.38,4.176,3.166,10.494,2.758,16.061l-.293,4.021c-.214,2.894-.5,5.982-2.137,8.235-1.277,1.745-3.34,2.933-3.867,5.109-.457,1.872.4,3.9-.05,5.777-.676,2.8-3.787,3.811-5.432,6.075a6.784,6.784,0,0,0-.408,6.987c.626,1.1,1.625,2.209,1.491,3.507-.114,1.044-.959,1.889-.954,2.938a2.286,2.286,0,0,0,1.526,2.027,5.564,5.564,0,0,0,2.52.133l8.911-.895a2.9,2.9,0,0,0,1.585-.486,3.262,3.262,0,0,0,.91-2.259c.358-3.524-.5-7.373,1.088-10.455.5-.989,1.228-1.812,1.779-2.762,3.042-5.3-.025-12.493,1.63-18.508.785-2.855,2.614-5.308,3.1-8.241.646-3.91-1.188-7.732-1.9-11.6-.731-3.993-.338-8.39-2.256-11.864a11.005,11.005,0,0,0-6.8-5.059c-2.485-.7-4.97-.447-7.455-.746C280.761,99.842,278.555,98.7,276.243,98.29Z"
                  transform="translate(-25.111 -30.83)" opacity="0.1"/>
            <path id="Path_42"
                  d="M276.243,97.586a7.951,7.951,0,0,0-3.742,0c-3.906,1.2-5.134,6.672-8.151,9.677-1.083,1.1-2.42,1.845-3.4,3.043-1.75,2.132-2.1,5.291-1.73,8.147s1.367,5.562,1.988,8.362a32.051,32.051,0,0,1,.691,8.572,5.475,5.475,0,0,1-.666,2.712c-.721,1.1-2.048,1.453-2.982,2.336-2.853,2.728-.5,8.39-2.589,11.875-.9,1.508-2.584,2.5-2.927,4.269a6.368,6.368,0,0,0,.78,3.673c1.332,3.038,2.714,6.158,4.97,8.423s5.045,3.4,7.818,4.557c.84.348,1.894.652,2.535-.039.79-.862.194-2.32-.353-3.386a7.848,7.848,0,0,1-1.034-5.523c.507-1.867,2.132-3.1,3.226-4.662,2.818-4.032,1.894-9.82.5-14.681-.591-2.049-1.257-4.231-.755-6.313.214-.895.636-1.707.9-2.585,1.193-3.91-.81-8.2-.224-12.278a18.937,18.937,0,0,1,1.491-4.568l3.156-7.539a7.6,7.6,0,0,1,1.4-2.441,4.641,4.641,0,0,1,3.479-1.2,9.066,9.066,0,0,1,6.774,3.43c3.38,4.176,3.166,10.494,2.758,16.061l-.293,4.021c-.214,2.894-.5,5.982-2.137,8.235-1.277,1.745-3.34,2.933-3.867,5.109-.457,1.872.4,3.9-.05,5.777-.676,2.8-3.787,3.811-5.432,6.075a6.784,6.784,0,0,0-.408,6.987c.626,1.1,1.625,2.209,1.491,3.507-.114,1.044-.959,1.889-.954,2.938a2.286,2.286,0,0,0,1.526,2.027,5.564,5.564,0,0,0,2.52.133l8.911-.895a2.9,2.9,0,0,0,1.585-.486,3.262,3.262,0,0,0,.91-2.259c.358-3.524-.5-7.373,1.088-10.455.5-.989,1.228-1.812,1.779-2.762,3.042-5.3-.025-12.493,1.63-18.508.785-2.855,2.614-5.308,3.1-8.241.646-3.91-1.188-7.732-1.9-11.6-.731-3.993-.338-8.39-2.256-11.864a11.005,11.005,0,0,0-6.8-5.059c-2.485-.7-4.97-.447-7.455-.746C280.761,99.144,278.555,98.006,276.243,97.586Z"
                  transform="translate(-25.111 -30.927)" fill="#774e55"/>
            <path id="Path_43" d="M256.983,178.232s7.187,2.4,17.6-2.795h5.383s.358,5.589,14.368,3.192"
                  transform="translate(-25.005 -20.11)" opacity="0.1"/>
            <ellipse id="Ellipse_18" cx="266.893" cy="27.064" rx="266.893" ry="27.064" transform="translate(0 354.079)"
                     fill="#f76e00" opacity="0.1"/>
            <rect id="Rectangle_25" width="39.761" height="16.57" rx="2.508" transform="translate(125.246 142.542)"
                  fill="#f76e00" opacity="0.1"/>
            <rect id="Rectangle_26" width="39.761" height="16.57" rx="2.508" transform="translate(143.138 160.768)"
                  fill="#f76e00" opacity="0.1"/>
            <rect id="Rectangle_27" width="39.761" height="16.57" rx="2.508" transform="translate(299.695 143.646)"
                  fill="#f76e00" opacity="0.1"/>
            <rect id="Rectangle_28" width="39.761" height="16.57" rx="2.508" transform="translate(317.587 161.873)"
                  fill="#f76e00" opacity="0.1"/>
            <rect id="Rectangle_29" width="39.761" height="16.57" rx="2.508" transform="translate(112.821 178.994)"
                  fill="#f76e00" opacity="0.1"/>
            <rect id="Rectangle_30" width="39.761" height="16.57" rx="2.508" transform="translate(152.581 243.616)"
                  fill="#f76e00" opacity="0.1"/>
            <rect id="Rectangle_31" width="39.761" height="16.57" rx="2.508" transform="translate(170.473 261.842)"
                  fill="#f76e00" opacity="0.1"/>
            <rect id="Rectangle_32" width="39.761" height="16.57" rx="2.508" transform="translate(140.156 280.068)"
                  fill="#f76e00" opacity="0.1"/>
            <rect id="Rectangle_33" width="39.761" height="16.57" rx="2.508" transform="translate(312.617 290.01)"
                  fill="#f76e00" opacity="0.1"/>
            <rect id="Rectangle_34" width="39.761" height="16.57" rx="2.508" transform="translate(282.3 308.237)"
                  fill="#f76e00" opacity="0.1"/>
            <g id="Group_10" transform="translate(447.442 213.505)" opacity="0.1">
                <path id="Path_44"
                      d="M489.151,376.169s-7.2-40.518,7.624-68.289a68.288,68.288,0,0,0,7.768-38.629,115.563,115.563,0,0,0-3.479-18.856"
                      transform="translate(-466.792 -223.229)" fill="none" stroke="#535461" stroke-miterlimit="10"
                      stroke-width="0.97"/>
                <path id="Path_45"
                      d="M510.148,236.138c-.4,4.833-9.443,18.05-9.443,18.05s-6.72-14.824-6.317-19.663,4.249-8.4,8.6-7.952,7.555,4.724,7.156,9.56Z"
                      transform="translate(-466.621 -226.535)" fill="#f76e00"/>
                <path id="Path_46"
                      d="M520.722,261.428c-2.7,3.816-16.749,9.456-16.749,9.456s1.61-16.5,4.309-20.32a7.6,7.6,0,0,1,7.439-3.585,8.118,8.118,0,0,1,6.372,5.572,9.565,9.565,0,0,1-1.386,8.878Z"
                      transform="translate(-466.386 -223.713)" fill="#f76e00"/>
                <path id="Path_47"
                      d="M516.521,301.859c-4.066,1.778-18.752-1.237-18.752-1.237s8.886-13.344,12.952-15.122,8.66.439,10.262,4.957-.4,9.624-4.461,11.4Z"
                      transform="translate(-466.538 -218.45)" fill="#f76e00"/>
                <path id="Path_48"
                      d="M506.462,331.442c-3.738,2.519-18.673,2.3-18.673,2.3s6.729-14.819,10.467-17.337,8.6-1.2,10.868,2.957a9.369,9.369,0,0,1-2.662,12.078Z"
                      transform="translate(-466.783 -214.259)" fill="#f76e00"/>
                <path id="Path_49"
                      d="M487.8,269.058c2.843,3.689,17.092,8.66,17.092,8.66s-2.237-16.415-5.074-20.1a7.376,7.376,0,0,0-11.156-.959,9.485,9.485,0,0,0-.862,12.4Z"
                      transform="translate(-466.829 -222.654)" fill="#f76e00"/>
                <path id="Path_50"
                      d="M476.518,304.109c3.7,2.574,18.643,2.579,18.643,2.579S488.61,291.776,484.9,289.2s-8.587-1.321-10.9,2.8a9.383,9.383,0,0,0,2.518,12.116Z"
                      transform="translate(-467.151 -218.038)" fill="#f76e00"/>
                <path id="Path_51"
                      d="M470.132,339.383c3.26,3.231,17.982,6.048,17.982,6.048s-4.19-15.934-7.455-19.165a7.351,7.351,0,0,0-7.858-2.016,8.537,8.537,0,0,0-5.368,6.689A9.356,9.356,0,0,0,470.132,339.383Z"
                      transform="translate(-467.286 -213.053)" fill="#f76e00"/>
            </g>
            <g id="Group_11" transform="translate(395.493 275.7)" opacity="0.1">
                <path id="Path_52"
                      d="M428.188,361.272s-3.862-21.756,4.09-36.668a36.669,36.669,0,0,0,4.17-20.745,62.049,62.049,0,0,0-1.859-10.124"
                      transform="translate(-416.32 -279.419)" fill="none" stroke="#535461" stroke-miterlimit="10"
                      stroke-width="0.97"/>
                <path id="Path_53"
                      d="M439.463,286.043c-.214,2.6-5.069,9.693-5.069,9.693s-3.608-7.959-3.395-10.555a4.368,4.368,0,0,1,4.59-4,4.579,4.579,0,0,1,3.859,4.862Z"
                      transform="translate(-416.228 -281.161)" fill="#f76e00"/>
                <path id="Path_54"
                      d="M445.137,299.623c-1.451,2.049-9,5.076-9,5.076s.865-8.837,2.316-10.908a3.962,3.962,0,0,1,5.886-.686A5.084,5.084,0,0,1,445.137,299.623Z"
                      transform="translate(-416.102 -279.646)" fill="#f76e00"/>
                <path id="Path_55"
                      d="M442.883,321.367c-2.182.956-10.069-.663-10.069-.663s4.771-7.18,6.958-8.119a4.134,4.134,0,0,1,5.388,2.713,4.925,4.925,0,0,1-2.271,6.069Z"
                      transform="translate(-416.183 -276.846)" fill="#f76e00"/>
                <path id="Path_56"
                      d="M437.482,337.249c-1.988,1.353-10.025,1.237-10.025,1.237s3.613-7.959,5.621-9.312a3.888,3.888,0,0,1,4.3-.177,4.991,4.991,0,0,1,.1,8.252Z"
                      transform="translate(-416.315 -274.612)" fill="#f76e00"/>
                <path id="Path_57"
                      d="M427.458,303.759c1.526,1.983,9.18,4.651,9.18,4.651s-1.2-8.837-2.724-10.792a3.963,3.963,0,0,0-5.994-.519,5.1,5.1,0,0,0-.467,6.661Z"
                      transform="translate(-416.34 -279.11)" fill="#f76e00"/>
                <path id="Path_58"
                      d="M421.4,322.573c1.988,1.381,10.01,1.386,10.01,1.386s-3.519-8.009-5.507-9.389a4.008,4.008,0,0,0-5.855,1.5,5.039,5.039,0,0,0,1.352,6.507Z"
                      transform="translate(-416.512 -276.632)" fill="#f76e00"/>
                <path id="Path_59"
                      d="M417.978,341.5c1.749,1.734,9.657,3.248,9.657,3.248s-2.246-8.555-3.976-10.29a3.958,3.958,0,0,0-6,.381,5.1,5.1,0,0,0,.343,6.667Z"
                      transform="translate(-416.582 -273.943)" fill="#f76e00"/>
            </g>
            <g id="Group_12" transform="translate(80.888 279.014)" opacity="0.1">
                <path id="Path_60"
                      d="M121.119,364.182s-3.862-21.756,4.09-36.668a36.67,36.67,0,0,0,4.17-20.745,62.066,62.066,0,0,0-1.859-10.124"
                      transform="translate(-109.25 -282.33)" fill="none" stroke="#535461" stroke-miterlimit="10"
                      stroke-width="0.97"/>
                <path id="Path_61"
                      d="M132.393,288.953c-.214,2.6-5.069,9.693-5.069,9.693s-3.608-7.959-3.395-10.555a4.368,4.368,0,0,1,4.59-4,4.579,4.579,0,0,1,3.859,4.862Z"
                      transform="translate(-109.158 -284.072)" fill="#f76e00"/>
                <path id="Path_62"
                      d="M138.067,302.533c-1.451,2.049-9,5.076-9,5.076s.865-8.837,2.316-10.908a3.962,3.962,0,0,1,5.886-.686A5.084,5.084,0,0,1,138.067,302.533Z"
                      transform="translate(-109.032 -282.557)" fill="#f76e00"/>
                <path id="Path_63"
                      d="M135.813,324.278c-2.182.956-10.069-.663-10.069-.663s4.771-7.18,6.958-8.119a4.134,4.134,0,0,1,5.387,2.713,4.925,4.925,0,0,1-2.271,6.069Z"
                      transform="translate(-109.113 -279.756)" fill="#f76e00"/>
                <path id="Path_64"
                      d="M130.413,340.16c-1.988,1.353-10.025,1.237-10.025,1.237s3.613-7.959,5.621-9.312a3.887,3.887,0,0,1,4.3-.178,4.991,4.991,0,0,1,.1,8.253Z"
                      transform="translate(-109.245 -277.522)" fill="#f76e00"/>
                <path id="Path_65"
                      d="M120.388,306.67c1.526,1.983,9.18,4.65,9.18,4.65s-1.2-8.837-2.724-10.792a3.963,3.963,0,0,0-5.994-.519,5.1,5.1,0,0,0-.467,6.661Z"
                      transform="translate(-109.27 -282.021)" fill="#f76e00"/>
                <path id="Path_66"
                      d="M114.333,325.483c1.988,1.381,10.01,1.386,10.01,1.386s-3.519-8.009-5.507-9.389a4.008,4.008,0,0,0-5.855,1.5,5.039,5.039,0,0,0,1.352,6.507Z"
                      transform="translate(-109.443 -279.543)" fill="#f76e00"/>
                <path id="Path_67"
                      d="M110.908,344.412c1.749,1.734,9.657,3.248,9.657,3.248s-2.246-8.555-3.976-10.29a3.958,3.958,0,0,0-6,.381,5.1,5.1,0,0,0,.343,6.667Z"
                      transform="translate(-109.512 -276.853)" fill="#f76e00"/>
            </g>
        </g>
    </g>
</svg>